<?xml version="1.0" encoding="utf-8"?>
<!-- Generator: Adobe Illustrator 16.0.0, SVG Export Plug-In . SVG Version: 6.00 Build 0)  -->
<!DOCTYPE svg PUBLIC "-//W3C//DTD SVG 1.1//EN" "http://www.w3.org/Graphics/SVG/1.1/DTD/svg11.dtd">
<svg version="1.1" id="春分" xmlns="http://www.w3.org/2000/svg" xmlns:xlink="http://www.w3.org/1999/xlink" x="0px" y="0px"
	 width="200.014px" height="200.012px" viewBox="0 0 200.014 200.012" enable-background="new 0 0 200.014 200.012"
	 xml:space="preserve">
<path fill="#FBE1D3" stroke="#652517" stroke-miterlimit="10" d="M58.842,115.226c0,7.784-1.325,16.392-6.94,16.392
	c-5.615,0-13.394-8.607-13.394-16.392s4.552-14.094,10.167-14.094C54.29,101.132,58.842,107.441,58.842,115.226z"/>
<rect x="88.632" y="152.756" fill="#FBE1D3" stroke="#652517" stroke-width="1.0667" stroke-miterlimit="10" width="22.375" height="17.353"/>
<g>
	<path fill="#FEF6E9" stroke="#652517" stroke-width="1.044" stroke-miterlimit="10" d="M88.092,159.356
		c0,0,4.791,7.75,11.447,10.752c0,0-8.875,10.44-18.01,11.484c0,0-15.014-4.828-12.665-19.444
		C68.865,162.148,84.308,163.271,88.092,159.356z"/>
	<path fill="#FEF6E9" stroke="#652517" stroke-width="1.044" stroke-miterlimit="10" d="M111.149,159.356
		c0,0-4.791,7.75-11.446,10.752c0,0,8.874,10.44,18.009,11.484c0,0,15.016-4.828,12.664-19.444
		C130.376,162.148,114.934,163.271,111.149,159.356z"/>
</g>
<path fill="#F7F295" stroke="#610F14" stroke-miterlimit="10" d="M146.497,44.622c13.999,24.73-20.595,24.73-46,24.73
	s-54.667-12.169-46-24.73c5.224-7.571,20.595-17.665,46-17.665S141.902,36.504,146.497,44.622z"/>
<path fill="#D91342" stroke="#661116" stroke-width="0.5" stroke-miterlimit="10" d="M149.174,49.673
	c13.999,17.219-24.611,17.324-50.017,17.324s-55.817-8.412-47.15-17.157c5.224-5.272,21.745-12.361,47.15-12.361
	S144.579,44.021,149.174,49.673z"/>
<path fill="#FBE1D3" stroke="#652517" stroke-miterlimit="10" d="M140.415,115.226c0,7.784,1.324,16.392,6.939,16.392
	s13.394-8.607,13.394-16.392s-4.552-14.094-10.167-14.094S140.415,107.441,140.415,115.226z"/>
<path fill="#FBE1D3" stroke="#652517" stroke-miterlimit="10" d="M151.377,115.207c7.222,22.145-23.01,42.5-51.393,42.5
	s-58.557-20.334-51.392-42.5c6.862-21.229,23.009-42.5,51.392-42.5S144.403,93.822,151.377,115.207z"/>
<path fill="#FBE1D3" d="M150.979,99.457c0,32.171-22.17,57.424-50.33,57.424c-28.159,0-51.645-25.253-51.645-57.424
	c0-32.17,39.568-35.25,51.317-35.25C107.823,64.207,150.979,67.287,150.979,99.457z"/>
<path fill="none" stroke="#66341A" stroke-width="0.7763" stroke-miterlimit="10" d="M64.01,95.239c0,0,4.822-7.334,8.839,0"/>
<path fill="none" stroke="#66341A" stroke-width="0.8066" stroke-miterlimit="10" d="M123.343,97.231c0,0,5.205-7.333,9.542,0"/>
<g>
	<ellipse opacity="0.5" fill="#F08C69" cx="66.506" cy="131.759" rx="7.843" ry="2.948"/>
	<path fill="none" stroke="#66341A" stroke-width="0.2" stroke-miterlimit="10" d="M63.833,130.644c0,0-0.625,0.827-0.75,1.948"/>
	<path fill="none" stroke="#66341A" stroke-width="0.2" stroke-miterlimit="10" d="M66.288,130.785c0,0-0.625,0.827-0.75,1.948"/>
</g>
<g>
	<ellipse opacity="0.5" fill="#F08C69" cx="130.84" cy="131.759" rx="7.843" ry="2.948"/>
	<path fill="none" stroke="#66341A" stroke-width="0.2" stroke-miterlimit="10" d="M133.512,130.644c0,0,0.625,0.827,0.75,1.948"/>
	<path fill="none" stroke="#66341A" stroke-width="0.2" stroke-miterlimit="10" d="M131.057,130.785c0,0,0.625,0.827,0.75,1.948"/>
</g>
<g>
	<g>
		<ellipse fill="#66341A" cx="68.429" cy="115.751" rx="3.875" ry="8.5"/>
		<path fill="#66341A" d="M65.969,104.496c0,0-0.859,2.594,1.056,4.047l1.107-0.179C68.132,108.364,65.717,106.568,65.969,104.496z"
			/>
	</g>
	<g>
		<ellipse fill="#66341A" cx="128.114" cy="115.751" rx="3.875" ry="8.5"/>
		<path fill="#66341A" d="M130.575,104.496c0,0,0.859,2.594-1.057,4.047l-1.107-0.179
			C128.411,108.364,130.827,106.568,130.575,104.496z"/>
	</g>
</g>
<path fill="#8E3D22" stroke="#672617" stroke-miterlimit="10" d="M91.007,74.228c0,0-7.75,6.072-10.289,12.807
	c0,0,4.956-5.152,9.373-6.235c0,0-2,7.402-1.083,8.321c0,0,1.217-4.83,3.442-5.747c0,0-0.192,6.347,3.558,9.007
	c0,0-0.042-9.34,4.208-11.59c0,0,5.125,2.813,5.313,7.5c0,0,1.313-4.75-0.813-9.188c0,0,5.041,2.247,6.447,3.966
	c0.28,0.343-0.322-6.903-7.072-8.841"/>
<path fill="#F7F295" stroke="#631015" stroke-width="0.9619" stroke-miterlimit="10" d="M189.245,66.211
	c-3.588,27.713-38.619,11.079-86.65,11.079c-48.032,0-80.647,15.546-87.288-11.079c-2.714-10.885,38.938-20.412,86.969-20.412
	S190.69,55.047,189.245,66.211z"/>
<path fill="none" stroke="#66341A" stroke-width="0.7763" stroke-miterlimit="10" d="M83.317,140.489
	c0,0,13.635,11.418,33.379-0.419"/>
<path fill="#8E3D22" stroke="#672617" stroke-width="1.0641" stroke-miterlimit="10" d="M41.809,80.061
	c0,0-17.141-2.916-23.972,5.378c-6.831,8.294-13.175,7.32-15.126,5.368c0,0,7.32,7.196,12.565,5.245
	c5.245-1.951-14.761,5.855-10.369,19.396c0,0,2.196-4.025,7.685-2.928c0,0-5.489,4.94-5.306,13.356c0,0,1.098,2.562-0.366,3.843
	c0,0,13.906,2.013,20.493-5.488c0,0-1.769,5.854-3.599,6.831c-1.83,0.976,14.364-2.223,20.654-17.591
	C51.966,95.154,50.347,87.38,41.809,80.061z"/>
<path fill="#8E3D22" stroke="#672617" stroke-miterlimit="10" d="M40.812,80.011c0,0-1.119,29.24,8.458,32.527
	c0,0,0.292-24.528,6.181-31.716L40.812,80.011z"/>
<g>
	<circle fill="#D91342" stroke="#661116" stroke-width="0.4439" stroke-miterlimit="10" cx="41.635" cy="88.816" r="5.108"/>
	
		<ellipse transform="matrix(-0.89 -0.4559 0.4559 -0.89 34.8229 181.5616)" opacity="0.4" fill="#FFFFFF" cx="39.311" cy="86.581" rx="0.648" ry="1.874"/>
</g>
<g>
	<circle fill="#D91342" stroke="#661116" stroke-width="0.5" stroke-miterlimit="10" cx="40.791" cy="96.21" r="5.753"/>
	
		<ellipse transform="matrix(-0.89 -0.456 0.456 -0.89 29.4207 194.4841)" opacity="0.4" fill="#FFFFFF" cx="38.174" cy="93.693" rx="0.73" ry="2.111"/>
</g>
<path fill="#8E3D22" stroke="#672617" stroke-width="1.0659" stroke-miterlimit="10" d="M157.228,80.147
	c0,0,17.274-2.903,24.159,5.354c6.884,8.258,13.276,7.288,15.243,5.344c0,0-7.377,7.164-12.662,5.221
	c-5.285-1.942,14.876,5.83,10.45,19.311c0,0-2.214-4.008-7.745-2.916c0,0,5.531,4.918,5.347,13.298c0,0-1.105,2.549,0.369,3.827
	c0,0-14.015,2.002-20.651-5.465c0,0,1.782,5.828,3.625,6.801c1.846,0.97-14.475-2.214-20.814-17.513
	C146.994,95.173,148.624,87.434,157.228,80.147z"/>
<path fill="#8E3D22" stroke="#672617" stroke-width="0.9939" stroke-miterlimit="10" d="M159.074,80.094
	c0,0,1.119,28.887-8.459,32.134c0,0-0.101-24.831-5.988-31.932L159.074,80.094z"/>
<g>
	<path fill="#D91342" stroke="#661116" stroke-width="0.4412" stroke-miterlimit="10" d="M163.238,87.699
		c0.609,2.721-1.127,5.416-3.881,6.021c-2.754,0.602-5.48-1.114-6.092-3.834c-0.611-2.722,1.125-5.416,3.881-6.02
		C159.9,83.262,162.627,84.979,163.238,87.699z"/>
	<path opacity="0.4" fill="#FFFFFF" d="M161.152,86.292c0.473,0.91,0.596,1.779,0.277,1.939c-0.32,0.162-0.959-0.445-1.432-1.355
		c-0.473-0.911-0.598-1.78-0.277-1.941C160.041,84.774,160.679,85.382,161.152,86.292z"/>
</g>
<g>
	<path fill="#D91342" stroke="#661116" stroke-width="0.497" stroke-miterlimit="10" d="M164.711,94.866
		c0.688,3.065-1.268,6.1-4.371,6.781c-3.102,0.68-6.174-1.254-6.861-4.318c-0.688-3.065,1.268-6.101,4.371-6.781
		C160.953,89.868,164.023,91.802,164.711,94.866z"/>
	<path opacity="0.4" fill="#FFFFFF" d="M162.361,93.281c0.533,1.025,0.672,2.004,0.314,2.185c-0.361,0.182-1.082-0.502-1.613-1.528
		s-0.672-2.005-0.313-2.186S161.83,92.255,162.361,93.281z"/>
</g>
<path fill="none" stroke="#66341A" stroke-width="0.7763" stroke-miterlimit="10" d="M96.145,123.589c0,0,2.746-4.834,5.667,0"/>
</svg>
