<?xml version="1.0" encoding="utf-8"?>
<!-- Generator: Adobe Illustrator 16.0.0, SVG Export Plug-In . SVG Version: 6.00 Build 0)  -->
<!DOCTYPE svg PUBLIC "-//W3C//DTD SVG 1.1//EN" "http://www.w3.org/Graphics/SVG/1.1/DTD/svg11.dtd">
<svg version="1.1" id="春分" xmlns="http://www.w3.org/2000/svg" xmlns:xlink="http://www.w3.org/1999/xlink" x="0px" y="0px"
	 width="200.014px" height="200.012px" viewBox="486 235.488 200.014 200.012" enable-background="new 486 235.488 200.014 200.012"
	 xml:space="preserve">
<g>
	<path fill="#23233F" stroke="#252A54" stroke-width="1.0726" stroke-miterlimit="10" d="M530.785,411.305
		c-1.41,6.35-8.007,10.063-14.731,8.294c-6.727-1.769-11.035-8.353-9.625-14.7c1.41-6.35,8.007-10.064,14.734-8.294
		C527.887,398.374,532.196,404.956,530.785,411.305z"/>
	<path fill="#23233F" stroke="#252A54" stroke-width="1.0726" stroke-miterlimit="10" d="M540.357,391.682
		c-2.022,6.699-9.401,10.009-16.48,7.39c-7.082-2.621-11.182-10.179-9.161-16.88c2.021-6.702,9.402-10.011,16.483-7.391
		C538.277,377.423,542.381,384.979,540.357,391.682z"/>
	<path fill="#23233F" stroke="#252A54" stroke-width="1.0726" stroke-miterlimit="10" d="M555.509,371.842
		c-3.653,8.378-13.71,11.257-22.463,6.426c-8.757-4.832-12.892-15.543-9.239-23.922c3.652-8.381,13.712-11.259,22.465-6.428
		C555.025,352.751,559.161,363.46,555.509,371.842z"/>
	<path fill="#23233F" stroke="#252A54" stroke-width="1.0726" stroke-miterlimit="10" d="M510.093,416.433
		c0,0-10.294,0.524-12.247,6.54c0,0,3.828-0.547,5.813-0.19c0,0-0.091,3.573,1.607,5.448c0,0,4.364,0.44,5.709-2.689
		c0,0,0.073,2.806,2.027,3.469c0,0,4.497-3.327,3.698-9.045C516.7,419.965,513.063,419.376,510.093,416.433z"/>
</g>
<g>
	<path fill="#23233F" stroke="#252A54" stroke-width="1.0726" stroke-miterlimit="10" d="M636.603,411.873
		c1.169,6.398,7.618,10.361,14.405,8.852c6.789-1.513,11.346-7.927,10.178-14.324c-1.167-6.397-7.616-10.362-14.407-8.85
		C639.993,399.064,635.434,405.477,636.603,411.873z"/>
	<path fill="#23233F" stroke="#252A54" stroke-width="1.0726" stroke-miterlimit="10" d="M627.787,391.9
		c1.765,6.771,9.013,10.36,16.187,8.011c7.176-2.349,11.561-9.743,9.798-16.516c-1.765-6.774-9.013-10.363-16.191-8.014
		C630.407,377.73,626.02,385.127,627.787,391.9z"/>
	<path fill="#23233F" stroke="#252A54" stroke-width="1.0726" stroke-miterlimit="10" d="M613.402,371.498
		c3.332,8.51,13.271,11.771,22.201,7.278c8.935-4.496,13.476-15.041,10.145-23.554c-3.33-8.514-13.272-11.773-22.204-7.28
		C614.613,352.438,610.071,362.982,613.402,371.498z"/>
	<path fill="#23233F" stroke="#252A54" stroke-width="1.0726" stroke-miterlimit="10" d="M657.085,417.787
		c0,0,10.267,0.917,11.99,7.003c0,0-3.805-0.694-5.802-0.413c0,0-0.045,3.575-1.813,5.384c0,0-4.38,0.273-5.604-2.906
		c0,0-0.18,2.802-2.156,3.391c0,0-4.367-3.498-3.35-9.181C650.35,421.064,654.004,420.614,657.085,417.787z"/>
</g>
<path fill="#23233F" stroke="#252A54" stroke-width="1.2008" stroke-miterlimit="10" d="M655.913,304.821
	c5.995,32.282-30.314,72.436-68.82,71.626c-38.507-0.809-76.428-42.239-70.623-74.557c10.421-58.023,55.287-58.493,70.971-57.975
	C602.915,244.428,644.253,242.043,655.913,304.821z"/>
<path fill="#FBE1D3" stroke="#652517" stroke-width="1.0726" stroke-miterlimit="10" d="M542.398,336.162
	c0,8.349-1.421,17.581-7.443,17.581s-14.365-9.232-14.365-17.581s4.882-15.116,10.905-15.116
	C537.517,321.046,542.398,327.813,542.398,336.162z"/>
<rect x="574.349" y="376.415" fill="#FBE1D3" stroke="#652517" stroke-width="1.1441" stroke-miterlimit="10" width="23.998" height="18.611"/>
<path fill="#FBE1D3" stroke="#652517" stroke-width="1.0726" stroke-miterlimit="10" d="M629.889,336.162
	c0,8.349,1.42,17.581,7.443,17.581c6.022,0,14.365-9.232,14.365-17.581s-4.882-15.116-10.905-15.116
	C634.77,321.046,629.889,327.813,629.889,336.162z"/>
<path fill="#FBE1D3" stroke="#652517" stroke-width="1.134" stroke-miterlimit="10" d="M641.646,330.77
	c7.746,26.55-24.679,50.956-55.121,50.956c-30.441,0-62.805-24.38-55.12-50.956c7.36-25.452,24.679-50.955,55.12-50.955
	C616.968,279.814,634.167,305.13,641.646,330.77z"/>
<path fill="#FBE1D3" d="M641.22,311.886c0,38.572-23.778,68.849-53.981,68.849c-30.202,0-55.392-30.276-55.392-68.849
	c0-38.569,42.438-42.263,55.041-42.263C594.933,269.623,641.22,273.316,641.22,311.886z"/>
<path fill="none" stroke="#66341A" stroke-width="0.8326" stroke-miterlimit="10" d="M547.941,314.726c0,0,5.172-7.866,9.48,0"/>
<path fill="none" stroke="#66341A" stroke-width="0.8651" stroke-miterlimit="10" d="M611.579,316.861c0,0,5.582-7.864,10.234,0"/>
<g>
	<ellipse opacity="0.5" fill="#F08C69" cx="550.619" cy="353.895" rx="8.412" ry="3.162"/>
	<path fill="none" stroke="#66341A" stroke-width="0.2145" stroke-miterlimit="10" d="M547.752,352.698c0,0-0.671,0.888-0.805,2.09"
		/>
	<path fill="none" stroke="#66341A" stroke-width="0.2145" stroke-miterlimit="10" d="M550.385,352.851c0,0-0.67,0.887-0.805,2.09"
		/>
</g>
<g>
	<ellipse opacity="0.5" fill="#F08C69" cx="619.619" cy="353.895" rx="8.412" ry="3.162"/>
	<path fill="none" stroke="#66341A" stroke-width="0.2145" stroke-miterlimit="10" d="M622.486,352.698c0,0,0.671,0.888,0.805,2.09"
		/>
	<path fill="none" stroke="#66341A" stroke-width="0.2145" stroke-miterlimit="10" d="M619.853,352.851c0,0,0.67,0.887,0.805,2.09"
		/>
</g>
<path fill="none" stroke="#66341A" stroke-width="0.7213" stroke-miterlimit="10" d="M571.536,361.193
	c0,0,13.033,13.625,28.408-0.125"/>
<path fill="none" stroke="#66341A" stroke-width="0.8326" stroke-miterlimit="10" d="M582.407,345.132c0,0,2.945-5.185,6.078,0"/>
<path fill="#EDC82B" stroke="#D1731E" stroke-width="1.2166" stroke-miterlimit="10" d="M572.995,386.853c0,0,13.974,16.25,27.724,0
	c0,0,14.854,6.75,28.813,19.293c0,0-42.459,15.873-85.962-0.397C543.569,405.748,565.407,389.022,572.995,386.853z"/>
<path fill="#23233F" stroke="#252A54" stroke-width="1.0726" stroke-miterlimit="10" d="M525.548,314.726
	c0,0-0.172,16.331,7.302,31.116c0,0,2.774-30.591,8.52-34.612c0,0-2.683,8.978,0.407,19.92c0,0,36.952-21.265,37.757-21.936
	c0,0-3.129,8.223-15.641,20.468c0,0,33.013,3.063,37.47-19.874c0,0-2.694,11.877-5.115,20.962c0,0,16.293-5.591,22.646-19.197
	c0,0,12.47,14.994,14.715,22.578c0,0,6.718-9.496-1.332-21.696c0,0,9.873,14.27,6.693,36.175c0,0,13.917-17.976,8.55-37.991
	c-8.85-32.996-28.361-47.002-56.978-48.479C561.925,260.68,526.939,275.824,525.548,314.726z"/>
<path fill="#E8343F" d="M525.699,321.046c0,0,1.801-51.803,74.105-44.537c0,0,45.469,4.781,49.541,44.537
	c0,0,8.917-58.471-51.364-62.837C536.087,253.725,514.89,291.053,525.699,321.046z"/>
<path fill="#F39631" stroke="#8D2B22" stroke-width="1.134" stroke-miterlimit="10" d="M538.686,276.987"/>
<g>
	<g>
		<ellipse fill="#66341A" cx="552.681" cy="336.726" rx="4.156" ry="9.116"/>
		<path fill="#66341A" d="M550.042,324.654c0,0-0.922,2.781,1.133,4.34l1.188-0.191
			C552.362,328.803,549.772,326.877,550.042,324.654z"/>
	</g>
	<g>
		<ellipse fill="#66341A" cx="616.696" cy="336.726" rx="4.156" ry="9.116"/>
		<path fill="#66341A" d="M619.336,324.654c0,0,0.922,2.781-1.133,4.34l-1.188-0.191
			C617.014,328.803,619.606,326.877,619.336,324.654z"/>
	</g>
</g>
</svg>
