<?xml version="1.0" encoding="utf-8"?>
<!-- Generator: Adobe Illustrator 16.0.0, SVG Export Plug-In . SVG Version: 6.00 Build 0)  -->
<!DOCTYPE svg PUBLIC "-//W3C//DTD SVG 1.1//EN" "http://www.w3.org/Graphics/SVG/1.1/DTD/svg11.dtd">
<svg version="1.1" id="春分" xmlns="http://www.w3.org/2000/svg" xmlns:xlink="http://www.w3.org/1999/xlink" x="0px" y="0px"
	 width="200.014px" height="200.012px" viewBox="0 235.488 200.014 200.012" enable-background="new 0 235.488 200.014 200.012"
	 xml:space="preserve">
<rect x="75.259" y="391.895" fill="#FBE1D3" stroke="#773831" stroke-width="1.1766" stroke-miterlimit="10" width="26.327" height="17.944"/>
<path fill="#5E2E1B" stroke="#350B0B" stroke-width="1.114" stroke-miterlimit="10" d="M88.657,268.446
	c0,0,13.531-39.128,40.069-24.807c0,0,0.521,3.201-5.439,7.783c0,0,35.24-13.646,42.373,22.077c0,0-6.911,4.647-17.088,2.103
	c0,0,41.77,8.427,33.989,54.722c0,0-10.975,1.415-18.754-4.783c0,0,5.727,8.418,3.89,21.144
	C167.697,346.685,141.941,355.249,88.657,268.446"/>
<path fill="#CC4A53" stroke="#7A171C" stroke-width="1.0564" stroke-miterlimit="10" d="M92.004,260.151
	c16.289-0.673,29.834,9.661,29.834,9.661s7.982-9.024-7.226-15.039c-14.363-5.683-18.073-1.634-19.561-0.2
	C93.564,256.005,92.004,260.151,92.004,260.151z"/>
<ellipse fill="#5E2E1B" stroke="#350B0B" stroke-width="1.2494" stroke-miterlimit="10" cx="87.087" cy="319.405" rx="65.51" ry="59.474"/>
<path fill="#CC4A53" stroke="#7A171C" stroke-width="1.0564" stroke-miterlimit="10" d="M73.945,405.577
	c0,0,11.219,9.403,28.798-0.283c0,0,13.984,6.647,27.734,19.003c0,0-41.82,15.633-84.667-0.393
	C45.81,423.904,66.471,407.714,73.945,405.577z"/>
<path fill="#FBE1D3" stroke="#773831" stroke-width="1.1766" stroke-miterlimit="10" d="M130.622,347.788
	c0,9.159,1.558,19.285,8.165,19.285c6.606,0,15.76-10.126,15.76-19.285c0-9.161-6.664-16.483-13.271-16.483
	C134.669,331.305,130.622,338.627,130.622,347.788z"/>
<path fill="#FBE1D3" stroke="#773831" stroke-width="1.1766" stroke-miterlimit="10" d="M44.02,347.788
	c0,9.159-1.56,19.285-8.166,19.285c-6.606,0-15.76-10.126-15.76-19.285c0-9.161,5.356-16.584,11.963-16.584
	C38.664,331.204,44.02,338.627,44.02,347.788z"/>
<path fill="#FBE1D3" stroke="#773831" stroke-width="1.1766" stroke-miterlimit="10" d="M146.112,349.139
	c1.508,27.664-24.099,48.583-57.495,48.583c-33.396,0-62.981-22.638-60.469-50.007c2.399-26.142,27.074-50.007,60.469-50.007
	C122.013,297.708,144.72,323.606,146.112,349.139z"/>
<path fill="#FBE1D3" d="M147.937,329.732c0,37.553-25.688,67.028-58.823,67.028c-33.132,0-60.765-29.476-60.765-67.028
	c0-37.55,46.556-41.145,60.381-41.145C97.555,288.588,147.937,292.183,147.937,329.732z"/>
<g>
	<ellipse opacity="0.5" fill="#F08C69" cx="49.226" cy="367.191" rx="9.229" ry="3.467"/>
	<path fill="none" stroke="#66341A" stroke-width="0.2353" stroke-miterlimit="10" d="M46.079,365.88c0,0-0.734,0.972-0.882,2.29"/>
	<path fill="none" stroke="#66341A" stroke-width="0.2353" stroke-miterlimit="10" d="M48.969,366.045c0,0-0.736,0.974-0.883,2.292"
		/>
</g>
<g>
	<ellipse opacity="0.5" fill="#F08C69" cx="124.922" cy="367.191" rx="9.228" ry="3.467"/>
	<path fill="none" stroke="#66341A" stroke-width="0.2353" stroke-miterlimit="10" d="M128.066,365.88c0,0,0.735,0.972,0.883,2.29"
		/>
	<path fill="none" stroke="#66341A" stroke-width="0.2353" stroke-miterlimit="10" d="M125.177,366.045c0,0,0.735,0.974,0.882,2.292
		"/>
</g>
<g>
	<g>
		<ellipse fill="#532813" cx="51.974" cy="349.337" rx="4.56" ry="10.001"/>
		<path fill="#532813" d="M49.08,336.093c0,0-1.011,3.052,1.241,4.76l1.303-0.208C51.624,340.645,48.783,338.529,49.08,336.093z"/>
	</g>
	<g>
		<ellipse fill="#532813" cx="122.201" cy="349.337" rx="4.56" ry="10.001"/>
		<path fill="#532813" d="M125.096,336.093c0,0,1.011,3.052-1.243,4.76l-1.303-0.208
			C122.551,340.645,125.392,338.529,125.096,336.093z"/>
	</g>
</g>
<path fill="none" stroke="#532813" stroke-width="1.0855" stroke-miterlimit="10" d="M81.267,379.146c0,0,6.549,6.612,14.312,0"/>
<path fill="none" stroke="#532813" stroke-width="1.1766" stroke-miterlimit="10" d="M91.672,362.137c-4.033-8.494-6.093,0-6.093,0"
	/>
<path fill="#5E2E1B" d="M148.757,329.183c0,0-2.452,53.977-9.934,68.539c0,0,1.806-73.028-2.6-71.175c0,0-0.544-0.356-1.261,11.807
	c0,0-10.779-9.171-13.75-19.463c0,0,0.779,8.48,5.814,20.981c0,0-16.731-2.381-20.635-18.348c0,0,3.903,17.375,3.903,24.648
	c0,0-12.837-16.68-11.957-21.566c0,0-1.854,16.691,7.877,23.108c0,0-28.816-7.302-33.277-29.893c0,0-9.716,16.861-7.292,25.81
	c0,0-11.179-11.473-10.258-24.072c0,0-7.627,17.208-9.874,24.677c0,0-6.213-9.351-3.521-23.808c0,0-9.89,10.775-3.926,76.321
	c0,0-13.958-36.558-12.023-67.567c2.323-37.236,12.514-63.958,63.762-63.823C129.103,265.463,147.363,290.868,148.757,329.183z"/>
<path fill="#FBE1D3" d="M148.23,329.183"/>
<path fill="none" stroke="#532813" stroke-width="1.1766" stroke-miterlimit="10" d="M44.02,334.166c0,0,8.794-6.542,15.583,2.09"/>
<path fill="none" stroke="#532813" stroke-width="1.2061" stroke-miterlimit="10" d="M128.066,335.814c0,0-7.729-8.271-16.456-1.257
	"/>
<path fill="none" stroke="#350B0B" stroke-width="1.2494" stroke-miterlimit="10" d="M25.876,333.587
	c0,0,1.337,39.616,12.192,63.163c0,0-6.349-59.988,3.926-76.321c0,0-2.352,12.891,3.521,23.808c0,0,7.536-20.127,9.874-24.677
	c0,0-1.19,12.728,10.258,24.072c0,0-1.442-10.32,7.292-25.81c0,0,1.48,20.693,33.277,29.893c0,0-9.872-7.525-7.877-23.108
	c0,0,0.966,8.537,11.957,21.566c0,0-2.762-19.512-3.588-23.488c0,0,1.764,13.527,20.319,17.188c0,0-6.151-17.981-5.814-20.981
	c0,0,4.098,11.467,13.75,19.463c0,0,0.941-10.637,1.927-12.208c0,0,6.136,56.564,1.956,70.604c0,0,7.047-20.65,9.78-65.015"/>
<path fill="none" stroke="#7A171C" stroke-width="0.3169" stroke-miterlimit="10" d="M77.522,407.125c0,0,11.748,6.563,21.242-0.567
	"/>
<path fill="none" stroke="#7A171C" stroke-width="0.3169" stroke-miterlimit="10" d="M89.908,414.88c0,0,6.958,1.396,10.571-3.718"
	/>
<path fill="#FFFFFF" d="M70.272,407.647c0,0-11.271,15.509-15.958,18.524c0,0,8.248,2.125,8.913,2.179
	c0,0,13.01-20.137,10.696-22.307C73.923,406.044,71.15,407.058,70.272,407.647z"/>
<path fill="#FFFFFF" d="M106.407,407.817c0,0,11.219,15.438,15.904,18.453c0,0-8.246,1.878-8.912,1.932
	c0,0-13.01-20.138-10.695-22.307C102.704,405.896,105.528,407.229,106.407,407.817z"/>
</svg>
