<?xml version="1.0" encoding="utf-8"?>
<!-- Generator: Adobe Illustrator 16.0.0, SVG Export Plug-In . SVG Version: 6.00 Build 0)  -->
<!DOCTYPE svg PUBLIC "-//W3C//DTD SVG 1.1//EN" "http://www.w3.org/Graphics/SVG/1.1/DTD/svg11.dtd">
<svg version="1.1" id="春分" xmlns="http://www.w3.org/2000/svg" xmlns:xlink="http://www.w3.org/1999/xlink" x="0px" y="0px"
	 width="200.014px" height="200.012px" viewBox="486 0 200.014 200.012" enable-background="new 486 0 200.014 200.012"
	 xml:space="preserve">
<path fill="#532813" stroke="#743730" stroke-miterlimit="10" d="M560.976,41.027c-48.792,13.931-51.936,91.051-31.886,127.715
	c0,0,112.235,6.527,116.245-0.447c16.312-28.363,6.748-83.995,2.626-93.597C643.839,65.097,620.963,23.901,560.976,41.027z"/>
<rect x="574.878" y="156.123" fill="#FBE1D3" stroke="#773831" stroke-width="1.1138" stroke-miterlimit="10" width="24.922" height="16.986"/>
<path fill="#2B2F4C" stroke="#060D27" stroke-width="1.1343" stroke-miterlimit="10" d="M574.574,165.713c0,0,13.028,15.15,25.849,0
	c0,0,13.849,6.293,26.863,17.988c0,0-39.587,14.799-80.147-0.371C547.138,183.33,567.499,167.736,574.574,165.713z"/>
<path fill="#FBE1D3" stroke="#773831" stroke-width="1.0511" stroke-miterlimit="10" d="M628.093,115.841
	c0,7.907,1.439,16.65,7.547,16.65c6.106,0,14.565-8.743,14.565-16.65c0-7.908-6.159-14.23-12.266-14.23
	C631.834,101.61,628.093,107.933,628.093,115.841z"/>
<path fill="#FBE1D3" stroke="#773831" stroke-width="1.0511" stroke-miterlimit="10" d="M545.306,115.928
	c0,7.907-1.441,16.65-7.546,16.65c-6.106,0-14.566-8.743-14.566-16.65c0-7.908,4.951-14.317,11.057-14.317
	S545.306,108.02,545.306,115.928z"/>
<path fill="#FBE1D3" stroke="#773831" stroke-width="1.087" stroke-miterlimit="10" d="M640.818,115.602
	c1.359,26.188-23.635,46.037-53.743,46.037c-30.106,0-56.78-21.43-54.515-47.338c2.163-24.746,24.408-47.338,54.515-47.338
	C617.183,66.963,639.563,91.433,640.818,115.602z"/>
<path fill="#FBE1D3" d="M643.579,96.758c0,35.834-24.317,63.961-55.684,63.961c-31.363,0-57.521-28.127-57.521-63.961
	c0-35.832,44.071-39.262,57.158-39.262C595.885,57.496,643.579,60.926,643.579,96.758z"/>
<g>
	<ellipse opacity="0.5" fill="#F08C69" cx="550.234" cy="132.738" rx="8.736" ry="3.281"/>
	<path fill="none" stroke="#66341A" stroke-width="0.2228" stroke-miterlimit="10" d="M547.256,131.496c0,0-0.695,0.92-0.835,2.168"
		/>
	<path fill="none" stroke="#66341A" stroke-width="0.2228" stroke-miterlimit="10" d="M549.991,131.652c0,0-0.696,0.922-0.836,2.17"
		/>
</g>
<g>
	<ellipse opacity="0.5" fill="#F08C69" cx="621.89" cy="132.738" rx="8.735" ry="3.281"/>
	<path fill="none" stroke="#66341A" stroke-width="0.2228" stroke-miterlimit="10" d="M624.867,131.496c0,0,0.696,0.92,0.836,2.168"
		/>
	<path fill="none" stroke="#66341A" stroke-width="0.2228" stroke-miterlimit="10" d="M622.133,131.652c0,0,0.696,0.922,0.835,2.17"
		/>
</g>
<g>
	<ellipse fill="#532813" cx="552.376" cy="114.908" rx="4.316" ry="9.467"/>
	<path fill="#532813" d="M549.635,102.371c0,0-0.957,2.889,1.175,4.506l1.233-0.197C552.044,106.68,549.355,104.678,549.635,102.371
		z"/>
</g>
<g>
	<ellipse fill="#532813" cx="618.854" cy="114.908" rx="4.316" ry="9.467"/>
	<path fill="#532813" d="M621.595,102.371c0,0,0.957,2.889-1.177,4.506l-1.233-0.197
		C619.185,106.68,621.876,104.678,621.595,102.371z"/>
</g>
<path fill="none" stroke="#532813" stroke-width="1.1138" stroke-miterlimit="10" d="M580.565,142.168c0,0,6.199,7.355,13.548,0"/>
<path fill="none" stroke="#532813" stroke-width="1.1138" stroke-miterlimit="10" d="M590.415,127.953c-3.817-8.041-5.768,0-5.768,0
	"/>
<path fill="#532813" stroke="#72362F" stroke-miterlimit="10" d="M531.029,84.912c0,0-3.028,28.424,3.94,42.209
	c0,0-0.129-25.596,5.005-32.858c0,0,0.137,3.622,7.321,14.063c0,0-0.031-16.124,4.795-23.066c0,0,0.75,23.754,13.594,27.672
	c0,0-2.455-18.497,5.855-33.508c0,0,4.897,10.899,2.308,16.759c0,0,3.861-7.711,3.042-12.337c0,0,7.68,25.481-1.384,31.555
	c0,0,19.261-8.012,23.416-29.396c0,0,9.05,15.96,6.792,24.431c0,0,10.413-10.86,9.554-22.786c0,0,9.618,17.366,11.711,24.437
	c0,0,3.543-12.532,0.767-23.614c0,0,13.061,18.226,10.096,38.649c0,0,9.12-21.682,4.116-40.344
	c-8.251-30.763-27.233-38.517-53.124-45.2C588.833,41.578,532.327,48.643,531.029,84.912z"/>
<path fill="#8D2B22" d="M530.376,99.42c0,0,1.65-50.018,67.923-43.003c0,0,41.676,4.617,45.408,43.003
	c0,0,8.174-56.455-47.079-60.671C539.896,34.42,520.469,70.46,530.376,99.42z"/>
<path fill="#AA312B" stroke="#791E1C" stroke-width="1.1832" stroke-miterlimit="10" d="M593.587,32.719
	c0,0,22.896-10.662,35.426-12.63c11.147-1.751,14.942-5.464,11.002,20.049c-0.92,5.958,2.74,20.217,2.837,25.166
	s-40.952,4.247-50.59-13.389C582.625,34.279,593.587,32.719,593.587,32.719z"/>
<path fill="#AA312B" stroke="#791E1C" stroke-width="1.1921" stroke-miterlimit="10" d="M576.239,31.747
	c0,0-20.618-12.066-33.488-12.438c-12.871-0.372-12.692-2.086-11.168,20.049c0.415,6.01-2.082,20.439-2.18,25.389
	c-0.099,4.949,46.586,1.295,52.835-12.755C589.587,35.47,576.239,31.747,576.239,31.747z"/>
<path fill="#7A171C" stroke="#791E1C" stroke-width="1.1138" stroke-miterlimit="10" d="M593.966,47.458
	c0.502,8.764,1.756,9.095-6.889,9.095l-0.81,0.083c-8.504,0-7.847,1.554-7.847-9.178V36.234c0-5.662,1.382-2.568,7.829-2.981h0.379
	c3.376-0.003,5.326-0.941,6.355-0.534c0.71,0.281,0.981,1.203,0.981,3.515V47.458z"/>
<path fill="#FBE1D3" d="M643.955,96.758"/>
<path fill="none" stroke="#532813" stroke-width="1.1138" stroke-miterlimit="10" d="M545.306,101.475c0,0,8.325-6.192,14.751,1.979
	"/>
<path fill="none" stroke="#532813" stroke-width="1.1417" stroke-miterlimit="10" d="M624.867,103.035c0,0-7.316-7.829-15.578-1.189
	"/>
<g>
	<path fill="#791E1C" d="M582.504,42.996c0,0-9.606-2.506-16.707-1.392s3.898,1.114,17.264,1.392"/>
	<path fill="#791E1C" d="M579.53,45.698c0,0-9.607,3.456-16.708,1.92c-7.101-1.536,3.898-1.536,17.265-1.92"/>
</g>
<g>
	<path fill="#791E1C" d="M590.309,42.997c0,0,7.64-2.506,13.287-1.392c5.646,1.114-3.101,1.114-13.73,1.392"/>
	<path fill="#791E1C" d="M592.675,45.699c0,0,7.64,3.456,13.287,1.92c5.647-1.536-3.101-1.536-13.73-1.92"/>
</g>
</svg>
