<?xml version="1.0" encoding="utf-8"?>
<!-- Generator: Adobe Illustrator 16.0.0, SVG Export Plug-In . SVG Version: 6.00 Build 0)  -->
<!DOCTYPE svg PUBLIC "-//W3C//DTD SVG 1.1//EN" "http://www.w3.org/Graphics/SVG/1.1/DTD/svg11.dtd">
<svg version="1.1" id="春分" xmlns="http://www.w3.org/2000/svg" xmlns:xlink="http://www.w3.org/1999/xlink" x="0px" y="0px"
	 width="200.014px" height="200.012px" viewBox="243 235.488 200.014 200.012" enable-background="new 243 235.488 200.014 200.012"
	 xml:space="preserve">
<path fill="#4C2409" stroke="#3A1E12" stroke-width="1.081" stroke-miterlimit="10" d="M424.417,334.761
	c13.556,48.297-30.683,69.68-82.575,67.988c-44.179-1.437-92.4-15.543-77.657-69.809c11.976-44.082,36.676-87.599,80.879-87.599
	C389.267,245.342,410.663,285.762,424.417,334.761z"/>
<rect x="330.851" y="383.248" fill="#FBE1D3" stroke="#773831" stroke-width="1.6375" stroke-miterlimit="10" width="28.888" height="31.675"/>
<path fill="#E4E9EA" stroke="#A9B6B7" stroke-width="1.1592" stroke-miterlimit="10" d="M323.518,402.843
	c0,0,25.241,26.987,39.611-1.362c0,0,13.529,2.868,28.617,16.425c0,0-45.889,17.154-92.904-0.431
	C298.843,417.475,315.319,405.188,323.518,402.843z"/>
<path fill="#FBE1D3" stroke="#773831" stroke-width="1.2911" stroke-miterlimit="10" d="M391.601,334.85
	c0,10.051,1.708,21.162,8.958,21.162c7.251,0,17.294-11.111,17.294-21.162c0-10.052-7.313-18.087-14.563-18.087
	C396.042,316.763,391.601,324.798,391.601,334.85z"/>
<path fill="#FBE1D3" stroke="#773831" stroke-width="1.2911" stroke-miterlimit="10" d="M296.574,334.85
	c0,10.051-1.713,21.162-8.961,21.162c-7.249,0-17.293-11.111-17.293-21.162c0-10.052,5.877-18.197,13.127-18.197
	C290.695,316.652,296.574,324.798,296.574,334.85z"/>
<path fill="#FBE1D3" stroke="#773831" stroke-width="1.2911" stroke-miterlimit="10" d="M408.598,336.332
	c1.654,30.355-26.444,53.31-63.09,53.31c-36.644,0-69.108-24.84-66.353-54.872c2.633-28.686,29.709-54.872,66.353-54.872
	C382.154,279.897,407.071,308.315,408.598,336.332z"/>
<path fill="#FBE1D3" d="M410.6,315.037c0,41.207-28.187,73.55-64.545,73.55c-36.355,0-66.678-32.343-66.678-73.55
	c0-41.203,51.086-45.147,66.256-45.147C355.317,269.89,410.6,273.834,410.6,315.037z"/>
<g>
	<g>
		<path fill="#532813" d="M310.305,336.55c0,6.059-2.241,10.974-5.005,10.974c-2.762,0-5.002-4.915-5.002-10.974
			c0-6.063,2.24-10.977,5.002-10.977C308.064,325.573,310.305,330.486,310.305,336.55z"/>
		<path fill="#532813" d="M302.125,322.017c0,0-1.109,3.349,1.361,5.223l1.431-0.228C304.917,327.012,301.8,324.69,302.125,322.017z
			"/>
	</g>
	<g>
		<path fill="#532813" d="M377.358,336.55c0,6.059,2.237,10.974,5.002,10.974s5.004-4.915,5.004-10.974
			c0-6.063-2.239-10.977-5.004-10.977S377.358,330.486,377.358,336.55z"/>
		<path fill="#532813" d="M385.538,322.017c0,0,1.108,3.349-1.365,5.223l-1.429-0.228
			C382.744,327.012,385.862,324.69,385.538,322.017z"/>
	</g>
</g>
<path fill="none" stroke="#532813" stroke-width="1.2911" stroke-miterlimit="10" d="M348.86,350.595c-4.424-9.32-6.685,0-6.685,0"
	/>
<path fill="#4C2409" stroke="#3A1E12" stroke-width="1.0973" stroke-miterlimit="10" d="M411.501,314.435
	c0,0,1.435,20.181-6.773,36.16c0,0-3.829-25.915-5.91-30.849c-36.482-12.397-45.915-23.243-55.788-32.653
	c0,0-38.522,29.924-52.2,32.709c0,0-4.364,5.771-8.144,29.229c0,0-4.649-7.521-5.835-34.596
	c-1.791-40.9,25.979-72.991,68.446-72.285C389.28,242.882,409.97,272.392,411.501,314.435z"/>
<path fill="#FBE1D3" d="M410.922,314.435"/>
<path fill="none" stroke="#532813" stroke-width="1.2911" stroke-miterlimit="10" d="M296.726,318.778c0,0,10.52-3.235,16.405,5.106
	"/>
<path fill="none" stroke="#532813" stroke-width="1.2911" stroke-miterlimit="10" d="M390.988,320.431
	c0,0-11.514-6.753-19.841,3.036"/>
<path fill="#3A7EAD" stroke="#3A1E12" stroke-width="0.7333" stroke-miterlimit="10" d="M280.318,286.805
	c0,0,67.212,6.489,127.156-0.409c0,0,3.545,6.997,2.565,9.118c0,0-44.075,10.674-132.59,1.326
	C277.45,296.84,277.337,292.113,280.318,286.805z"/>
<ellipse fill="#F5CA44" stroke="#B98E17" stroke-width="0.908" stroke-miterlimit="10" cx="343.029" cy="295.087" rx="6.729" ry="5.575"/>
<polygon fill="#E71F3D" points="342.83,323.441 338.495,303.457 347.181,303.457 "/>
<polygon fill="#E71F3D" points="305.293,369.938 300.959,349.953 309.645,349.953 "/>
<polygon fill="#E71F3D" points="384.256,369.938 379.921,349.953 388.607,349.953 "/>
<line fill="none" stroke="#532813" stroke-width="1.2911" stroke-miterlimit="10" x1="336.448" y1="367.881" x2="354.588" y2="367.881"/>
<path fill="none" stroke="#532813" stroke-width="1.2911" stroke-miterlimit="10" d="M323.518,406.169
	c0,0,23.203,29.833,43.552-0.489"/>
<path fill="#D5DADB" stroke="#A9B6B7" stroke-width="1.1592" stroke-miterlimit="10" d="M318.703,419.495
	c-0.749-0.344,4.515-11.038,5.531-11.253c1.019-0.214,4.116,2.204,4.173,3.31S319.451,419.839,318.703,419.495z"/>
<path fill="#D5DADB" stroke="#A9B6B7" stroke-width="1.1592" stroke-miterlimit="10" d="M334.825,427.538
	c-0.822-0.063,0.394-11.92,1.271-12.475c0.88-0.555,4.626,0.636,5.064,1.65C341.597,417.732,335.646,427.601,334.825,427.538z"/>
<path fill="#D5DADB" stroke="#A9B6B7" stroke-width="1.1592" stroke-miterlimit="10" d="M356.008,428.198
	c-0.724,0.396-6.176-10.202-5.741-11.147c0.434-0.945,4.222-1.992,5.144-1.379C356.333,416.284,356.729,427.802,356.008,428.198z"/>
<path fill="#D5DADB" stroke="#A9B6B7" stroke-width="1.1592" stroke-miterlimit="10" d="M371.19,419.251
	c-0.547,0.616-9.255-7.524-9.164-8.56c0.09-1.036,3.304-3.299,4.377-3.033C367.478,407.925,371.736,418.634,371.19,419.251z"/>
<path fill="#D5DADB" stroke="#A9B6B7" stroke-width="1.3246" stroke-miterlimit="10" d="M314.112,399.693
	c0,0,6.523-3.189,10.854,0.274c13.073,7.443,8.641,8.389,10.41,10.27c1.294,1.376-0.436,5.665-4.253,5.972
	c0,0-6.743,2.53-9.47-1.959c0,0-6.761-1.604-7.501-5.628c0,0-15.255,10.147-14.315,7.296
	C299.837,415.918,302.855,402.661,314.112,399.693z"/>
<path fill="#D5DADB" stroke="#A9B6B7" stroke-width="1.4426" stroke-miterlimit="10" d="M379.697,397.525
	c0,0-5.648-4.168-11.104-0.555c-15.555,7.467-11.346,8.903-13.718,10.914c-1.734,1.469-1.291,6.514,2.493,7.17
	c0,0,6.071,3.436,10.215-1.48c0,0,7.356-1.293,9.34-5.838c0,0,15.242,13.385,15.163,10.047
	C392.086,417.783,390.219,401.825,379.697,397.525z"/>
</svg>
